<svg 
 xmlns="http://www.w3.org/2000/svg"
 xmlns:xlink="http://www.w3.org/1999/xlink"
 width="10px" height="20px">
<path fill-rule="evenodd"  fill="rgb(141, 141, 141)"
 d="M2.718,6.974 C2.718,6.974 2.725,5.874 2.725,4.830 C2.725,2.967 3.606,-0.014 7.419,-0.014 C9.513,-0.014 9.723,-0.014 9.723,-0.014 L9.745,3.485 C9.745,3.485 8.038,3.485 7.362,3.485 C6.533,3.485 6.224,3.935 6.224,4.740 C6.224,5.545 6.245,7.003 6.245,7.003 L9.737,7.003 L9.712,10.510 L6.242,10.510 L6.243,19.842 L2.748,19.842 L2.747,10.480 L0.372,10.502 L0.372,6.996 L2.718,6.974 Z"/>
</svg>