<svg 
 xmlns="http://www.w3.org/2000/svg"
 xmlns:xlink="http://www.w3.org/1999/xlink"
 width="21px" height="21px">
<path fill-rule="evenodd"  fill="rgb(141, 141, 141)"
 d="M10.460,14.750 C8.186,14.750 6.342,12.906 6.342,10.632 C6.342,8.358 8.186,6.514 10.460,6.514 C12.734,6.514 14.578,8.358 14.578,10.632 C14.578,12.906 12.734,14.750 10.460,14.750 ZM10.378,7.630 C8.755,7.630 7.439,8.946 7.439,10.568 C7.439,12.191 8.755,13.507 10.378,13.507 C12.000,13.507 13.316,12.191 13.316,10.568 C13.316,8.946 12.000,7.630 10.378,7.630 ZM20.267,7.608 L20.267,16.968 C20.267,18.917 18.687,20.497 16.738,20.497 L4.032,20.497 C2.083,20.497 0.504,18.917 0.504,16.968 L0.504,4.186 C0.504,2.672 1.461,1.392 2.800,0.890 L2.800,5.335 L3.985,5.335 L3.985,0.662 C4.001,0.661 4.016,0.657 4.032,0.657 L5.135,0.657 L5.135,5.335 L6.320,5.335 L6.320,0.657 L16.738,0.657 C18.687,0.657 20.267,2.237 20.267,4.186 L20.267,6.436 L13.707,6.436 C12.800,5.712 11.665,5.261 10.414,5.261 C9.163,5.261 8.028,5.712 7.121,6.436 L0.505,6.436 L0.505,7.608 L6.009,7.608 C5.440,8.454 5.107,9.472 5.107,10.568 C5.107,13.499 7.483,15.875 10.414,15.875 C13.345,15.875 15.721,13.499 15.721,10.568 C15.721,9.472 15.388,8.454 14.819,7.608 L20.267,7.608 ZM15.655,5.041 C15.655,5.200 15.784,5.330 15.944,5.330 L17.725,5.330 C17.885,5.330 18.015,5.200 18.015,5.041 L18.015,3.187 C18.015,3.027 17.885,2.897 17.725,2.897 L15.944,2.897 C15.784,2.897 15.655,3.027 15.655,3.187 L15.655,5.041 Z"/>
</svg>