<svg 
 xmlns="http://www.w3.org/2000/svg"
 xmlns:xlink="http://www.w3.org/1999/xlink"
 width="16px" height="25px">
<path fill-rule="evenodd"  fill="rgb(141, 141, 141)"
 d="M12.164,16.638 C11.302,17.031 10.115,17.362 9.117,17.477 C9.071,17.482 9.020,17.488 8.974,17.494 C10.977,19.559 13.236,21.892 13.236,21.892 C13.852,22.525 13.835,23.541 13.202,24.163 C12.569,24.779 11.553,24.761 10.931,24.129 L7.600,20.694 L4.268,24.129 C3.652,24.761 2.636,24.779 1.997,24.163 C1.364,23.547 1.347,22.531 1.963,21.892 L6.236,17.488 C6.219,17.488 6.202,17.482 6.185,17.482 C5.192,17.368 4.000,17.037 3.138,16.643 C1.449,15.868 0.263,15.229 0.263,14.145 C0.263,13.677 0.639,12.576 1.866,12.576 C2.847,12.576 2.864,13.220 4.553,13.882 C5.882,14.401 6.903,14.510 7.582,14.510 C7.605,14.510 7.622,14.510 7.645,14.510 C7.668,14.510 7.685,14.510 7.708,14.510 C8.393,14.510 9.408,14.407 10.737,13.882 C12.432,13.220 12.449,12.576 13.424,12.576 C14.645,12.576 15.027,13.677 15.027,14.145 C15.039,15.223 13.852,15.862 12.164,16.638 ZM7.503,12.622 C4.131,12.622 1.392,9.889 1.392,6.511 C1.392,3.134 4.125,0.401 7.503,0.401 C10.880,0.401 13.613,3.134 13.613,6.511 C13.613,9.889 10.874,12.622 7.503,12.622 ZM7.503,3.493 C5.837,3.493 4.485,4.846 4.485,6.511 C4.485,8.177 5.837,9.529 7.503,9.529 C9.168,9.529 10.521,8.177 10.521,6.511 C10.521,4.846 9.168,3.493 7.503,3.493 Z"/>
</svg>