<svg 
 xmlns="http://www.w3.org/2000/svg"
 xmlns:xlink="http://www.w3.org/1999/xlink"
 width="26px" height="15px">
<path fill-rule="evenodd"  fill="rgb(141, 141, 141)"
 d="M24.442,3.344 C23.909,4.153 22.106,6.333 21.756,6.848 C21.555,7.145 21.384,7.424 21.382,7.713 C21.382,7.924 21.480,8.141 21.683,8.375 C22.161,8.927 24.645,11.672 25.012,12.315 C25.215,12.670 25.556,13.243 25.409,13.644 C25.263,14.042 24.706,14.155 24.350,14.155 C23.559,14.155 21.425,14.155 20.910,14.155 C20.395,14.155 19.990,14.100 19.181,13.493 C18.371,12.886 17.360,10.783 17.010,10.526 C16.661,10.268 16.532,10.065 16.237,10.065 C15.943,10.065 15.428,10.787 15.299,11.412 C15.219,11.800 15.161,12.775 15.128,13.137 C15.131,13.165 15.134,13.186 15.134,13.199 C15.134,13.530 15.042,14.118 14.140,14.118 C13.239,14.118 11.633,14.357 9.867,13.309 C9.169,12.895 8.393,12.418 7.618,11.695 C6.433,10.589 4.637,8.570 3.305,6.296 C1.714,3.582 1.005,2.448 0.803,2.043 C0.600,1.639 0.288,0.940 1.539,0.940 C2.790,0.940 4.224,0.940 4.703,0.940 C5.181,0.940 5.604,0.995 5.935,1.712 C6.453,2.833 7.446,4.844 8.180,5.930 C8.640,6.611 8.728,7.053 9.225,7.053 C9.758,7.053 10.108,5.763 10.108,3.758 C10.108,2.661 10.034,2.079 9.801,1.681 C9.415,1.019 8.897,1.680 8.897,1.032 C8.897,0.975 9.003,0.576 9.841,0.314 C10.338,0.159 11.058,0.076 12.264,0.076 C13.617,0.076 14.362,0.219 14.753,0.494 C15.202,0.810 15.274,1.289 15.274,1.732 C15.274,2.560 14.842,4.207 14.842,5.312 C14.842,6.417 15.226,6.949 15.833,6.949 C16.159,6.949 17.122,5.967 17.926,4.670 C18.619,3.550 19.169,2.394 19.365,1.951 C19.788,0.995 19.935,0.940 20.726,0.940 C21.517,0.940 24.037,0.940 24.497,0.940 C24.957,0.940 25.472,0.976 25.472,1.639 C25.472,2.301 24.976,2.535 24.442,3.344 Z"/>
</svg>