<svg 
 xmlns="http://www.w3.org/2000/svg"
 xmlns:xlink="http://www.w3.org/1999/xlink"
 width="59px" height="62px">
<path fill-rule="evenodd"  fill="rgb(101, 101, 101)"
 d="M0.000,61.999 L0.000,-0.001 L59.000,-0.001 L59.000,61.999 L0.000,61.999 ZM37.666,18.725 C38.417,17.974 38.417,16.755 37.666,16.003 C36.914,15.251 35.695,15.251 34.944,16.003 L21.850,29.096 C21.665,29.187 21.488,29.302 21.334,29.456 C20.938,29.852 20.757,30.377 20.778,30.895 C20.757,31.414 20.938,31.939 21.334,32.335 C21.488,32.489 21.665,32.603 21.850,32.694 L34.944,45.788 C35.695,46.539 36.914,46.539 37.666,45.788 C38.417,45.036 38.417,43.817 37.666,43.065 L25.495,30.895 L37.666,18.725 Z"/>
</svg>