<svg  xmlns="http://www.w3.org/2000/svg" xmlns:xlink="http://www.w3.org/1999/xlink" width="51px" height="51px">
<path fill-rule="evenodd"  stroke-width="1px" stroke="rgb(0, 0, 0)" fill-opacity="0" opacity="0.4" fill="rgb(145, 145, 145)"
 d="M42.500,48.499 L42.500,38.499 L37.500,38.499 L37.500,48.499 L2.500,48.499 L2.500,22.499 L7.500,22.499 L7.500,2.499 L13.500,2.499 L13.500,22.499 L18.000,22.499 L28.500,12.999 L28.500,22.499 L38.500,12.999 L38.500,22.499 L48.500,12.999 L48.500,48.499 L42.500,48.499 ZM12.500,28.499 L7.500,28.499 L7.500,43.499 L12.500,43.499 L12.500,28.499 ZM22.500,28.499 L17.500,28.499 L17.500,43.499 L22.500,43.499 L22.500,28.499 ZM32.500,28.499 L27.500,28.499 L27.500,43.499 L32.500,43.499 L32.500,28.499 ZM42.500,28.499 L37.500,28.499 L37.500,33.499 L42.500,33.499 L42.500,28.499 Z"/>
</svg>