<svg 
 xmlns="http://www.w3.org/2000/svg"
 xmlns:xlink="http://www.w3.org/1999/xlink"
 width="44px" height="45px">
<path fill-rule="evenodd"  stroke-width="1px" stroke="rgb(0, 0, 0)" fill-opacity="0" opacity="0.4" fill="rgb(0, 0, 0)"
d="M40.665,35.345 C39.811,36.652 37.868,37.497 36.307,37.497 C33.766,37.497 31.544,36.368 31.544,33.203 L31.544,28.680 C31.544,28.004 31.152,27.550 30.476,27.550 L30.476,38.471 C31.153,38.471 31.513,39.018 31.513,39.694 L31.513,42.486 L2.484,42.486 L2.484,39.694 C2.484,39.018 2.813,38.471 3.490,38.471 L3.490,4.958 C3.490,3.607 4.586,2.511 5.937,2.511 L28.029,2.511 C29.380,2.511 30.476,3.607 30.476,4.958 L30.476,7.468 L32.044,7.468 C33.395,7.468 34.492,8.565 34.492,9.916 L34.492,15.203 L40.929,30.411 C41.747,32.278 41.518,34.037 40.665,35.345 ZM26.492,8.943 C26.492,7.591 25.396,6.495 24.045,6.495 L9.952,6.495 C8.601,6.495 7.505,7.591 7.505,8.943 L7.505,21.056 C7.505,22.407 8.601,23.503 9.952,23.503 L24.045,23.503 C25.396,23.503 26.492,22.407 26.492,21.056 L26.492,8.943 ZM37.866,30.254 C37.010,28.525 30.476,14.027 30.476,14.027 L30.476,24.477 C32.500,24.477 34.460,25.187 34.460,28.680 L34.460,32.640 C34.460,33.831 35.116,34.490 36.307,34.486 C37.698,34.482 39.460,33.473 37.866,30.254 ZM13.774,20.488 C9.779,16.496 12.326,9.955 12.326,9.955 C12.326,9.955 13.566,12.710 15.653,13.284 C16.975,13.646 18.500,13.100 19.830,14.432 C21.557,16.158 21.271,17.902 20.081,19.425 C20.854,19.684 21.472,19.691 21.472,19.691 L21.472,21.421 C20.528,21.421 19.751,20.908 19.088,20.439 C17.427,21.793 15.139,21.854 13.774,20.488 Z"/>
</svg>