<svg 
 xmlns="http://www.w3.org/2000/svg"
 xmlns:xlink="http://www.w3.org/1999/xlink"
 width="6px" height="79px">
<path fill-rule="evenodd"  fill="rgb(95, 171, 221)"
 d="M4.841,52.066 C4.663,52.263 2.040,54.807 2.040,54.807 C1.793,55.054 1.393,55.054 1.147,54.807 C0.900,54.560 0.900,54.160 1.147,53.913 L3.621,51.498 L1.245,49.083 C0.999,48.836 0.999,48.436 1.245,48.189 C1.492,47.943 1.892,47.943 2.139,48.189 C2.139,48.189 4.624,50.674 4.782,50.832 C4.940,50.990 5.158,51.245 5.158,51.498 C5.158,51.791 5.019,51.868 4.841,52.066 ZM4.841,28.065 C4.663,28.263 2.040,30.807 2.040,30.807 C1.793,31.054 1.393,31.054 1.147,30.807 C0.900,30.560 0.900,30.160 1.147,29.914 L3.621,27.498 L1.245,25.083 C0.999,24.836 0.999,24.436 1.245,24.190 C1.492,23.943 1.892,23.943 2.139,24.190 C2.139,24.190 4.624,26.674 4.782,26.832 C4.940,26.990 5.158,27.245 5.158,27.498 C5.158,27.791 5.019,27.869 4.841,28.065 ZM4.841,4.066 C4.663,4.263 2.040,6.807 2.040,6.807 C1.793,7.054 1.393,7.054 1.147,6.807 C0.900,6.560 0.900,6.160 1.147,5.914 L3.621,3.498 L1.245,1.083 C0.999,0.836 0.999,0.436 1.245,0.189 C1.492,-0.057 1.892,-0.057 2.139,0.189 C2.139,0.189 4.624,2.674 4.782,2.832 C4.940,2.990 5.158,3.245 5.158,3.498 C5.158,3.791 5.019,3.868 4.841,4.066 ZM3.621,75.498 L1.245,73.083 C0.999,72.836 0.999,72.436 1.245,72.190 C1.492,71.943 1.892,71.943 2.139,72.190 C2.139,72.190 4.624,74.674 4.782,74.832 C4.940,74.990 5.158,75.245 5.158,75.498 C5.158,75.791 5.019,75.868 4.841,76.065 C4.663,76.263 2.040,78.807 2.040,78.807 C1.793,79.054 1.393,79.054 1.147,78.807 C0.900,78.560 0.900,78.160 1.147,77.913 L3.621,75.498 Z"/>
</svg>