<svg xmlns="http://www.w3.org/2000/svg" xmlns:xlink="http://www.w3.org/1999/xlink" width="13px" height="17px">
<path fill-rule="evenodd"  fill="rgb(72, 72, 72)"
 d="M11.824,16.178 L1.643,16.178 C1.242,16.178 0.916,15.853 0.916,15.451 L0.916,8.171 C0.916,7.769 1.242,7.444 1.643,7.444 L2.371,7.444 L2.371,5.251 C2.371,2.847 4.319,0.899 6.723,0.899 C9.126,0.899 11.074,2.847 11.074,5.251 L11.074,7.444 L11.824,7.444 C12.226,7.444 12.552,7.769 12.552,8.171 L12.552,15.451 C12.552,15.853 12.226,16.178 11.824,16.178 ZM6.165,12.332 L6.165,13.722 C6.165,14.038 6.421,14.294 6.736,14.294 C7.052,14.294 7.308,14.038 7.308,13.722 L7.308,12.342 C7.647,12.146 7.879,11.784 7.879,11.363 C7.879,10.737 7.371,10.230 6.745,10.230 C6.119,10.230 5.612,10.737 5.612,11.363 C5.612,11.776 5.835,12.135 6.165,12.332 ZM9.633,5.141 C9.633,3.597 8.342,2.345 6.723,2.345 C5.103,2.345 3.812,3.597 3.812,5.141 L3.812,7.444 L9.633,7.444 L9.633,5.141 Z"/>
</svg>