<svg 
 xmlns="http://www.w3.org/2000/svg"
 xmlns:xlink="http://www.w3.org/1999/xlink"
 width="112px" height="91px">
<path fill-rule="evenodd"  fill="rgb(6, 69, 109)"
 d="M110.958,71.689 L110.958,74.158 C110.958,76.468 110.168,78.363 108.588,79.842 C107.075,81.272 105.254,81.986 103.127,81.986 C101.049,81.986 99.289,81.256 97.842,79.792 C96.394,78.329 95.673,76.576 95.673,74.531 L95.673,73.758 L100.161,73.409 L100.260,74.506 C100.326,75.287 100.603,75.927 101.096,76.427 C101.586,76.926 102.222,77.174 103.002,77.174 C105.163,77.174 106.245,76.170 106.245,74.158 L106.245,72.317 C106.245,69.112 104.565,67.510 101.209,67.510 L101.209,63.474 C103.019,63.474 104.358,62.968 105.222,61.954 C106.021,61.043 106.419,59.763 106.419,58.119 L106.419,57.398 C106.419,55.354 105.521,54.333 103.727,54.333 C102.729,54.333 101.996,54.713 101.533,55.473 C101.181,56.053 101.008,56.805 101.008,57.729 L101.008,58.547 L96.394,58.547 L96.394,57.825 C96.394,55.597 96.961,53.784 98.091,52.389 C99.369,50.792 101.173,49.996 103.501,49.996 C105.712,49.996 107.482,50.743 108.812,52.240 C110.009,53.586 110.608,55.265 110.608,57.277 L110.608,58.598 C110.608,60.543 110.025,62.221 108.862,63.634 C108.364,64.233 107.781,64.741 107.116,65.155 C108.514,65.939 109.594,67.126 110.359,68.722 C110.758,69.535 110.958,70.526 110.958,71.689 ZM87.019,74.481 L82.101,74.481 L80.956,81.662 L76.047,81.662 L81.360,50.419 L87.842,50.419 L93.080,81.662 L88.124,81.662 L87.019,74.481 ZM84.576,57.576 L82.832,69.894 L86.321,69.894 L84.576,57.576 ZM65.624,81.662 L60.912,81.662 L60.912,50.419 L73.754,50.419 L73.754,55.108 L65.624,55.108 L65.624,81.662 ZM53.232,80.567 C52.034,81.297 50.847,81.662 49.666,81.662 L40.939,81.662 L40.939,50.393 L47.994,50.393 C49.856,50.393 51.536,50.884 53.033,51.865 C54.312,52.696 55.227,53.985 55.775,55.729 C56.074,56.660 56.223,57.767 56.223,59.046 C56.223,61.141 55.667,62.820 54.552,64.083 C54.087,64.616 53.539,65.021 52.908,65.305 C53.954,65.705 54.845,66.493 55.576,67.673 C56.057,68.472 56.415,69.502 56.648,70.765 C56.762,71.414 56.824,72.138 56.824,72.935 C56.824,74.914 56.447,76.592 55.700,77.973 C55.119,79.053 54.295,79.918 53.232,80.567 ZM50.265,56.104 C49.682,55.488 48.926,55.181 47.994,55.181 L46.026,55.181 L46.026,63.162 L47.994,63.162 C49.458,63.162 50.438,62.445 50.938,61.018 C51.120,60.485 51.212,59.828 51.212,59.046 C51.212,57.749 50.896,56.768 50.265,56.104 ZM50.637,68.770 C50.039,68.040 49.159,67.673 47.994,67.673 L46.026,67.673 L46.026,76.999 L47.994,76.999 C49.591,76.999 50.695,76.177 51.312,74.531 C51.528,73.967 51.636,73.317 51.636,72.586 C51.636,70.842 51.304,69.569 50.637,68.770 ZM30.916,74.481 L25.997,74.481 L24.852,81.662 L19.944,81.662 L25.257,50.419 L31.739,50.419 L36.974,81.662 L32.019,81.662 L30.916,74.481 ZM28.472,57.576 L26.726,69.894 L30.216,69.894 L28.472,57.576 ZM11.168,81.662 L6.218,68.968 L4.810,71.750 L4.810,81.662 L0.095,81.662 L0.095,50.393 L4.810,50.393 L4.810,61.541 L10.568,50.393 L15.592,50.393 L9.143,63.147 L16.707,81.662 L11.168,81.662 Z"/>
<path fill-rule="evenodd"  fill="rgb(6, 69, 109)"
 d="M65.662,28.035 C65.595,28.055 65.519,28.067 65.441,28.079 C67.130,33.332 63.641,38.795 58.243,39.064 L58.243,31.071 C61.007,30.924 64.081,31.555 64.980,28.009 C64.995,27.943 65.005,27.878 65.019,27.813 C65.058,27.637 65.096,27.460 65.125,27.266 C65.773,23.234 64.147,20.110 61.148,17.407 C59.360,15.795 57.808,13.919 56.031,12.035 C52.092,16.225 47.772,19.499 45.230,24.378 C42.613,29.400 42.223,34.207 46.495,38.663 C45.031,38.679 43.471,37.963 42.262,36.470 C38.122,31.363 37.268,25.580 39.477,19.506 C40.297,17.248 41.752,15.069 43.393,13.290 C47.231,9.131 51.356,5.235 55.368,1.237 C55.507,1.097 55.675,0.988 56.062,0.677 C57.778,2.463 59.470,4.262 61.195,6.024 C63.921,8.808 66.793,11.455 69.379,14.360 C73.616,19.121 71.585,26.342 65.662,28.035 ZM46.536,27.280 C47.168,31.695 50.523,30.914 53.473,31.071 L53.473,39.064 C47.784,38.782 44.157,32.778 46.536,27.280 Z"/>
<path fill-rule="evenodd"  fill="rgb(95, 173, 222)"
 d="M65.662,28.035 C65.595,28.055 65.519,28.067 65.441,28.079 C67.130,33.332 63.641,38.795 58.243,39.064 L58.243,31.071 C61.007,30.924 64.081,31.555 64.980,28.009 C64.995,27.943 65.005,27.878 65.019,27.813 C65.058,27.637 65.096,27.460 65.125,27.266 C65.773,23.234 64.147,20.110 61.148,17.407 C59.360,15.795 57.808,13.919 56.031,12.035 C52.092,16.225 47.772,19.499 45.230,24.378 C42.613,29.400 42.223,34.207 46.495,38.663 C45.031,38.679 43.471,37.963 42.262,36.470 C38.122,31.363 37.268,25.580 39.477,19.506 C40.297,17.248 41.752,15.069 43.393,13.290 C47.231,9.131 51.356,5.235 55.368,1.237 C55.507,1.097 55.675,0.988 56.062,0.677 C57.778,2.463 59.470,4.262 61.195,6.024 C63.921,8.808 66.793,11.455 69.379,14.360 C73.616,19.121 71.585,26.342 65.662,28.035 ZM46.536,27.280 C47.168,31.695 50.523,30.914 53.473,31.071 L53.473,39.064 C47.784,38.782 44.157,32.778 46.536,27.280 Z"/>
<path fill-rule="evenodd"  fill="rgb(5, 69, 108)"
 d="M90.322,90.106 L90.322,87.167 L88.183,90.106 L87.940,90.106 L87.940,86.814 L88.183,86.814 L88.183,89.754 L90.326,86.814 L90.567,86.814 L90.567,90.106 L90.322,90.106 ZM88.622,85.998 L88.816,85.958 C88.873,86.167 89.014,86.299 89.257,86.299 C89.504,86.299 89.644,86.167 89.700,85.958 L89.893,85.998 C89.838,86.305 89.592,86.539 89.257,86.539 C88.924,86.539 88.679,86.305 88.622,85.998 ZM85.304,87.167 L83.164,90.106 L82.921,90.106 L82.921,86.814 L83.164,86.814 L83.164,89.754 L85.307,86.814 L85.547,86.814 L85.547,90.106 L85.304,90.106 L85.304,87.167 ZM80.281,88.564 L78.173,88.564 L78.173,90.106 L77.930,90.106 L77.930,86.814 L78.173,86.814 L78.173,88.337 L80.281,88.337 L80.281,86.814 L80.526,86.814 L80.526,90.106 L80.281,90.106 L80.281,88.564 ZM75.129,89.185 L73.187,89.185 L72.768,90.106 L72.514,90.106 L74.048,86.790 L74.283,86.790 L75.818,90.106 L75.549,90.106 L75.129,89.185 ZM74.161,87.058 L73.290,88.965 L75.027,88.965 L74.161,87.058 ZM70.157,87.038 L68.096,87.038 L68.096,90.106 L67.853,90.106 L67.853,86.814 L70.403,86.814 L70.403,90.106 L70.157,90.106 L70.157,87.038 ZM65.213,87.245 L63.910,89.142 L63.891,89.142 L62.586,87.245 L62.586,90.106 L62.352,90.106 L62.352,86.814 L62.582,86.814 L63.905,88.762 L65.227,86.814 L65.457,86.814 L65.457,90.106 L65.213,90.106 L65.213,87.245 ZM58.442,90.165 C57.444,90.165 56.791,89.369 56.791,88.461 C56.791,87.563 57.452,86.757 58.451,86.757 C59.448,86.757 60.103,87.553 60.103,88.461 C60.103,89.360 59.439,90.165 58.442,90.165 ZM58.442,86.977 C57.627,86.977 57.043,87.637 57.043,88.461 C57.043,89.274 57.638,89.942 58.451,89.942 C59.264,89.942 59.849,89.282 59.849,88.461 C59.849,87.647 59.256,86.977 58.442,86.977 ZM54.765,90.106 L53.407,88.441 L52.588,89.270 L52.588,90.106 L52.345,90.106 L52.345,86.814 L52.588,86.814 L52.588,88.978 L54.688,86.814 L55.023,86.814 L53.582,88.267 L55.084,90.106 L54.765,90.106 ZM46.721,89.185 L44.777,89.185 L44.358,90.106 L44.104,90.106 L45.638,86.790 L45.873,86.790 L47.409,90.106 L47.139,90.106 L46.721,89.185 ZM45.752,87.058 L44.880,88.965 L46.618,88.965 L45.752,87.058 ZM41.748,87.038 L39.686,87.038 L39.686,90.106 L39.442,90.106 L39.442,86.814 L41.994,86.814 L41.994,90.106 L41.748,90.106 L41.748,87.038 ZM36.803,87.038 L34.742,87.038 L34.742,90.106 L34.497,90.106 L34.497,86.814 L37.048,86.814 L37.048,90.106 L36.803,90.106 L36.803,87.038 ZM30.122,90.165 C29.902,90.165 29.759,90.126 29.596,90.051 L29.690,89.840 C29.825,89.906 29.930,89.932 30.122,89.932 C30.381,89.932 30.654,89.783 30.866,89.360 L29.379,86.814 L29.665,86.814 L30.989,89.105 L32.119,86.814 L32.386,86.814 L31.078,89.440 C30.814,89.967 30.462,90.165 30.122,90.165 ZM26.378,88.878 L25.488,88.878 L25.488,90.106 L25.244,90.106 L25.244,86.814 L26.439,86.814 C27.164,86.814 27.665,87.183 27.665,87.831 C27.665,88.521 27.066,88.878 26.378,88.878 ZM26.420,87.038 L25.488,87.038 L25.488,88.653 L26.393,88.653 C27.005,88.653 27.418,88.333 27.418,87.834 C27.418,87.312 27.015,87.038 26.420,87.038 ZM21.298,90.106 L21.052,90.106 L21.052,86.814 L23.110,86.814 L23.110,87.038 L21.298,87.038 L21.298,90.106 Z"/>
<path fill-rule="evenodd"  fill="rgb(6, 69, 109)"
 d="M92.745,88.210 L92.745,87.913 L111.125,87.913 L111.125,88.210 L92.745,88.210 ZM0.494,87.913 L18.874,87.913 L18.874,88.210 L0.494,88.210 L0.494,87.913 Z"/>
</svg>