<svg 
 xmlns="http://www.w3.org/2000/svg"
 xmlns:xlink="http://www.w3.org/1999/xlink"
 width="18px" height="16px">
<path fill-rule="evenodd"  fill="rgb(0, 135, 255)"
 d="M0.697,15.962 L0.697,14.109 C0.697,12.803 5.337,10.226 6.554,10.226 C6.554,10.226 7.286,10.226 7.286,9.519 C7.286,9.167 7.286,8.504 7.286,8.504 C6.167,7.805 5.404,5.855 5.404,4.343 C5.404,2.101 7.063,-0.011 9.110,-0.011 C11.157,-0.011 12.905,2.101 12.905,4.343 C12.905,5.802 12.107,7.718 11.051,8.434 C11.051,8.434 11.051,9.079 11.051,9.578 C11.051,10.255 11.784,10.344 11.784,10.344 C12.883,10.344 17.641,12.803 17.641,14.109 L17.641,15.962 L0.697,15.962 Z"/>
</svg>