<svg 
 xmlns="http://www.w3.org/2000/svg"
 xmlns:xlink="http://www.w3.org/1999/xlink"
 width="12px" height="18px">
<path fill-rule="evenodd"  fill="rgb(0, 135, 255)"
 d="M11.343,8.172 L11.384,8.174 L7.604,16.588 L7.572,16.589 C7.323,17.244 6.695,17.711 5.953,17.711 C5.109,17.711 4.407,17.110 4.249,16.313 L0.787,8.608 C0.366,7.799 0.104,6.893 0.104,5.918 C0.104,2.686 2.725,0.065 5.958,0.065 C9.190,0.065 11.811,2.686 11.811,5.918 C11.811,6.720 11.635,7.476 11.343,8.172 ZM5.953,3.718 C4.741,3.718 3.758,4.701 3.758,5.913 C3.758,7.126 4.741,8.108 5.953,8.108 C7.165,8.108 8.148,7.126 8.148,5.913 C8.148,4.701 7.165,3.718 5.953,3.718 Z"/>
</svg>