<svg xmlns="http://www.w3.org/2000/svg" width="19.47" height="7.531" viewBox="0 0 19.47 7.531">
<defs>
    <style>
      .cls-1 {
        fill: #06456d;
        fill-rule: evenodd;
      }
    </style>
  </defs>
  <path class="cls-1" d="M1362.62,48.076c0.79,0.191,1.38-.032,1.55-1.979s-1-3.817-3.7-4.752-7.68-.845-9.36-0.634c-2.43.3-5.45,2.342-6.1,4.351-0.79,2.464.07,2.855,1.45,2.823a12.49,12.49,0,0,0,2.81-.395,1.264,1.264,0,0,0,.87-1.607,5.454,5.454,0,0,1,.08-2.192s1.29-.741,4.47-0.656a15.522,15.522,0,0,1,5.08.868,5.811,5.811,0,0,0-.88,1.8,1.22,1.22,0,0,0,.89,1.675C1360.82,47.674,1362.01,47.926,1362.62,48.076Z" transform="translate(-1344.69 -40.594)"/>
</svg>
